<svg width="50" height="50" viewBox="0 0 50 50" fill="none" xmlns="http://www.w3.org/2000/svg">
<path d="M34.2316 6.45123L38.0722 6.93131C38.0722 6.93131 39.526 4.25133 40.9527 2.98399C42.3339 1.75709 45.06 0.636927 45.06 0.636927C45.06 0.636927 38.3389 -1.28292 29.8041 1.54375C23.4092 3.66173 20.8427 10.1319 20.8427 10.1319C20.8427 10.1319 21.3885 8.14176 21.9095 6.93178C22.4329 5.7161 23.5098 3.94415 23.5098 3.94415C23.5098 3.94415 21.056 4.21693 17.162 7.46474C13.7142 10.3404 10.921 17.1197 10.921 17.1197C10.921 17.1197 11.3578 15.0909 11.7211 13.8129C12.0868 12.5265 12.788 10.5586 12.788 10.5586C12.788 10.5586 10.0675 13.3862 9.00067 16.9063C8.13749 19.7544 7.7738 24.4276 7.7738 24.4276C7.59673 23.4584 7.32518 22.9457 7.13369 21.9743C6.8983 20.7801 6.97902 20.0772 6.76029 18.88C6.76029 18.88 5.12076 22.5861 5.26671 25.0677C5.42674 27.7886 7.93382 31.2025 7.93382 31.2025C7.93382 31.2025 12.2611 22.0211 16.1485 17.1197C21.056 10.9321 25.4834 8.74495 25.4834 8.74495C25.4834 8.74495 17.5354 14.4527 11.7211 25.9212C6.42144 36.3746 5 49.9252 5 49.9252L8.25388 44.8043C8.25388 44.8043 7.56043 44.0576 7.56043 41.9238C7.56043 38.0105 10.6009 32.3756 10.6009 32.3756C10.6009 32.3756 14.9298 30.0864 17.162 27.9482C19.1028 26.089 21.3761 22.5073 21.3761 22.5073L16.842 24.4276C16.842 24.4276 19.6691 23.0941 24.95 16.9064C27.9007 13.449 33.6448 9.59843 33.6448 9.59843C33.6448 9.59843 31.6373 9.70348 30.3909 9.97191C28.7194 10.3319 26.3369 11.4655 26.3369 11.4655C26.3369 11.4655 28.5877 10.0687 30.3909 9.38515C32.6964 8.51122 36.8987 7.83813 36.8987 7.83813L34.2316 6.45123Z" fill="#F1E7D3"></path>
</svg>