<svg xmlns="http://www.w3.org/2000/svg" viewBox="0 0 16 16" width="16" height="16">
  <style>
    .feather { fill: #2A2622; }
    @media (prefers-color-scheme: dark) { .feather { fill: #F1E7D3; } }
  </style>
  <path class="feather" d="M10.9478 2.06439L12.1769 2.21802C12.1769 2.21802 12.6421 1.36042 13.0986 0.954876C13.5406 0.562267 14.413 0.203817 14.413 0.203817C14.413 0.203817 12.2622 -0.410535 9.53108 0.493999C7.48468 1.17175 6.6634 3.24222 6.6634 3.24222C6.6634 3.24222 6.83808 2.60536 7.00479 2.21817C7.17228 1.82915 7.51687 1.26213 7.51687 1.26213C7.51687 1.26213 6.73168 1.34942 5.4856 2.38872C4.3823 3.30893 3.48847 5.4783 3.48847 5.4783C3.48847 5.4783 3.62826 4.8291 3.74451 4.42014C3.86154 4.00847 4.0859 3.37875 4.0859 3.37875C4.0859 3.37875 3.21535 4.28358 2.87396 5.41002C2.59775 6.32142 2.48137 7.81682 2.48137 7.81682C2.4247 7.50667 2.33781 7.34264 2.27653 7.03178C2.2012 6.64963 2.22704 6.42471 2.15704 6.04159C2.15704 6.04159 1.63239 7.22756 1.6791 8.02166C1.73031 8.89235 2.53257 9.9848 2.53257 9.9848C2.53257 9.9848 3.91732 7.04675 5.16128 5.4783C6.73168 3.49826 8.14845 2.79838 8.14845 2.79838C8.14845 2.79838 5.60509 4.62485 3.74451 8.29477C2.04861 11.6399 1.59375 15.9761 1.59375 15.9761L2.63499 14.3374C2.63499 14.3374 2.41309 14.0984 2.41309 13.4156C2.41309 12.1634 3.38605 10.3602 3.38605 10.3602C3.38605 10.3602 4.7713 9.62765 5.4856 8.94341C6.10666 8.34849 6.83409 7.20232 6.83409 7.20232L5.38318 7.81682C5.38318 7.81682 6.28787 7.39011 7.97775 5.41005C8.92198 4.30368 10.7601 3.0715 10.7601 3.0715C10.7601 3.0715 10.1177 3.10511 9.71884 3.19101C9.18396 3.3062 8.42156 3.66896 8.42156 3.66896C8.42156 3.66896 9.1418 3.22198 9.71884 3.00325C10.4566 2.72359 11.8013 2.5082 11.8013 2.5082L10.9478 2.06439Z"/>
</svg>
