<svg xmlns="http://www.w3.org/2000/svg" width="365" height="73" viewBox="0 0 365 73" fill="none" role="img" aria-label="Quill Design System">
  <g transform="translate(6 6.000000000000001) scale(1.0400)"><path fill="#2A2622" d="M34.2316 6.45123L38.0722 6.93131C38.0722 6.93131 39.526 4.25133 40.9527 2.98399C42.3339 1.75709 45.06 0.636927 45.06 0.636927C45.06 0.636927 38.3389 -1.28292 29.8041 1.54375C23.4092 3.66173 20.8427 10.1319 20.8427 10.1319C20.8427 10.1319 21.3885 8.14176 21.9095 6.93178C22.4329 5.7161 23.5098 3.94415 23.5098 3.94415C23.5098 3.94415 21.056 4.21693 17.162 7.46474C13.7142 10.3404 10.921 17.1197 10.921 17.1197C10.921 17.1197 11.3578 15.0909 11.7211 13.8129C12.0868 12.5265 12.788 10.5586 12.788 10.5586C12.788 10.5586 10.0675 13.3862 9.00067 16.9063C8.13749 19.7544 7.7738 24.4276 7.7738 24.4276C7.59673 23.4584 7.32518 22.9457 7.13369 21.9743C6.8983 20.7801 6.97902 20.0772 6.76029 18.88C6.76029 18.88 5.12076 22.5861 5.26671 25.0677C5.42674 27.7886 7.93382 31.2025 7.93382 31.2025C7.93382 31.2025 12.2611 22.0211 16.1485 17.1197C21.056 10.9321 25.4834 8.74495 25.4834 8.74495C25.4834 8.74495 17.5354 14.4527 11.7211 25.9212C6.42144 36.3746 5 49.9252 5 49.9252L8.25388 44.8043C8.25388 44.8043 7.56043 44.0576 7.56043 41.9238C7.56043 38.0105 10.6009 32.3756 10.6009 32.3756C10.6009 32.3756 14.9298 30.0864 17.162 27.9482C19.1028 26.089 21.3761 22.5073 21.3761 22.5073L16.842 24.4276C16.842 24.4276 19.6691 23.0941 24.95 16.9064C27.9007 13.449 33.6448 9.59843 33.6448 9.59843C33.6448 9.59843 31.6373 9.70348 30.3909 9.97191C28.7194 10.3319 26.3369 11.4655 26.3369 11.4655C26.3369 11.4655 28.5877 10.0687 30.3909 9.38515C32.6964 8.51122 36.8987 7.83813 36.8987 7.83813L34.2316 6.45123Z"></path></g>
  <path transform="translate(37 54.68) scale(0.02300 -0.02300)" fill="#2A2622" d="M724.561,1420.28Q872.781,1420.28 995.26,1367.35Q1117.74,1314.43 1207.29,1218.26Q1296.84,1122.09 1345.45,991.151Q1394.05,860.215 1394.05,704.163Q1394.05,541.936 1345.61,408.336Q1297.17,274.736 1208.31,178.433Q1119.45,82.1303 997.458,29.9776Q875.462,-22.175 728.279,-22.175Q578.946,-22.175 456.096,30.2385Q333.247,82.652 244.301,178.755Q155.356,274.859 107.042,406.901Q58.7288,538.943 58.7288,698.493Q58.7288,858.743 107.599,991.317Q156.47,1123.89 245.558,1219.77Q334.645,1315.64 456.68,1367.96Q578.714,1420.28 724.561,1420.28ZM1175.41,580.661Q1175.41,704.947 1151.91,819.07Q1128.42,933.193 1084.56,1029.77Q1040.69,1126.36 979.748,1197.92Q918.807,1269.48 843.898,1309.18Q768.989,1348.88 683.088,1348.88Q563.568,1348.88 472.019,1285.1Q380.469,1221.32 329.044,1102.55Q277.619,983.778 277.619,818.979Q277.619,694.142 301.245,579.462Q324.871,464.783 368.634,368.356Q412.396,271.929 473.465,200.226Q534.534,128.523 609.825,88.7945Q685.117,49.0659 771.396,49.0659Q891.403,49.0659 982.346,112.263Q1073.29,175.46 1124.35,294.454Q1175.41,413.449 1175.41,580.661ZM777.6,354.854Q772.122,374.515 776.795,387.046Q781.468,399.577 794.606,402.258Q807.167,405.139 816.211,396.544Q825.254,387.949 832.325,366.171Q881.442,215.088 932.233,116.752Q983.025,18.4166 1037.43,-37.4595Q1091.84,-93.3357 1150.82,-116.133Q1209.81,-138.931 1275.74,-138.931Q1318.47,-138.931 1344.1,-131.58Q1369.73,-124.23 1386.69,-113.77Q1403.65,-103.311 1418.58,-94.1704Q1428.65,-91.396 1435.79,-95.172Q1442.92,-98.948 1444.14,-108.956Q1445.64,-115.968 1443.46,-124.323Q1441.28,-132.679 1433.91,-145.24L1377.42,-234.58Q1362.69,-259.973 1340.75,-271.516Q1318.82,-283.06 1279.06,-283.06Q1202.85,-283.06 1135.22,-251.01Q1067.59,-218.961 1006.23,-145.407Q944.869,-71.8535 888.308,50.9448Q831.747,173.743 777.6,354.854Z"></path>
  <path transform="translate(69.15 54.68) scale(0.02300 -0.02300)" fill="#2A2622" d="M700.553,70.5188L700.553,163.276L698.045,169.966L698.045,725.598Q698.045,743.472 692.498,751.354Q686.951,759.236 673.585,761.488L607.383,762.803Q595.679,766.068 590.513,772.223Q585.346,778.379 585.346,787.257Q585.346,797.549 591.876,804.531Q598.405,811.514 614.095,817.013L796.874,873.524Q817.741,880.987 829.01,883.544Q840.279,886.101 849.775,886.101Q864.726,886.101 872.684,876.706Q880.641,867.311 880.641,851.973L880.641,113.234Q880.641,90.3501 888.616,78.8466Q896.59,67.3431 913.353,63.0083L962.255,53.9442Q974.088,49.5644 979.633,42.7236Q985.178,35.8829 985.178,25.4785Q985.178,13.5906 977.403,6.7953Q969.627,0 954.87,0L767.477,0Q734.234,0 717.394,17.9683Q700.553,35.9366 700.553,70.5188ZM136.831,245.617L136.831,725.598Q136.831,743.472 131.144,751.354Q125.457,759.236 111.81,761.488L45.6081,762.803Q33.9038,766.068 28.7376,772.223Q23.5713,778.379 23.5713,787.257Q23.5713,797.549 30.1005,804.531Q36.6297,811.514 52.3202,817.013L235.66,873.524Q256.753,881 267.922,883.551Q279.091,886.101 288.51,886.101Q303.5,886.101 311.464,876.706Q319.428,867.311 319.428,851.973L319.428,278.766Q319.428,184.12 363.476,137.672Q407.524,91.2235 478.752,91.2235Q526.718,91.2235 578.434,114.494Q630.15,137.765 685.822,189.623L719.854,221.062L747.18,189.132L709.216,152.987Q611.686,60.0034 530.691,20.422Q449.696,-19.1594 374.141,-19.1594Q269.826,-19.1594 203.328,48.3566Q136.831,115.873 136.831,245.617Z"></path>
  <path transform="translate(91.05 54.68) scale(0.02300 -0.02300)" fill="#2A2622" d="M337.01,852.741L337.01,113.234Q337.01,90.2565 344.563,79.0338Q352.117,67.811 369.722,63.0083L418.624,53.9442Q430.25,49.7515 435.899,42.8172Q441.547,35.8829 441.547,25.4785Q441.547,13.5714 433.772,6.78568Q425.996,0 411.239,0L78.3852,0Q64.2408,0 56.4589,6.78568Q48.677,13.5714 48.677,25.4785Q48.677,35.3022 54.2221,42.0961Q59.7673,48.8901 70.9998,53.3634L121.702,63.0083Q139.507,67.8303 146.961,79.0338Q154.414,90.2373 154.414,112.654L154.414,726.366Q154.414,744.24 148.867,752.122Q143.32,760.004 129.954,762.256L63.7521,763.571Q52.0478,766.836 46.8816,772.991Q41.7153,779.146 41.7153,788.025Q41.7153,798.317 48.2445,805.299Q54.7737,812.282 70.4642,817.781L253.242,874.292Q274.336,881.768 285.504,884.319Q296.673,886.869 306.093,886.869Q321.082,886.869 329.046,877.474Q337.01,868.079 337.01,852.741ZM235.031,1052.79Q180.179,1052.79 146.43,1087.02Q112.682,1121.26 112.682,1173.6Q112.682,1226.48 146.711,1260.68Q180.74,1294.87 235.031,1294.87Q290.147,1294.87 324.336,1260.67Q358.524,1226.46 358.524,1173.89Q358.524,1121.26 324.195,1087.02Q289.866,1052.79 235.031,1052.79Z"></path>
  <path transform="translate(100.43 54.68) scale(0.02300 -0.02300)" fill="#2A2622" d="M336.449,1437.71L336.449,113.234Q336.449,90.0693 344.002,78.8466Q351.555,67.6239 369.161,63.0083L418.063,53.9442Q429.876,49.5644 435.431,42.7236Q440.986,35.8829 440.986,25.4785Q440.986,13.5714 433.21,6.78568Q425.435,0 410.677,0L77.8239,0Q63.8666,0 55.9911,6.78568Q48.1157,13.5714 48.1157,25.4785Q48.1157,35.5829 54.2223,42.7044Q60.3289,49.8259 72.6845,54.4864L121.141,63.0083Q138.946,67.6431 146.399,78.8466Q153.852,90.0501 153.852,112.654L153.852,1311.33Q153.852,1329.2 148.306,1337.09Q142.759,1344.97 129.393,1347.22L63.1908,1348.54Q51.4865,1351.79 46.3203,1357.95Q41.154,1364.11 41.154,1372.99Q41.154,1383.28 47.6832,1390.26Q54.2124,1397.25 69.9029,1402.74L252.681,1459.26Q273.774,1466.73 284.943,1469.28Q296.112,1471.83 305.532,1471.83Q320.521,1471.83 328.485,1462.44Q336.449,1453.04 336.449,1437.71Z"></path>
  <path transform="translate(110.55 54.68) scale(0.02300 -0.02300)" fill="#2A2622" d="M336.449,1437.71L336.449,113.234Q336.449,90.0693 344.002,78.8466Q351.555,67.6239 369.161,63.0083L418.063,53.9442Q429.876,49.5644 435.431,42.7236Q440.986,35.8829 440.986,25.4785Q440.986,13.5714 433.21,6.78568Q425.435,0 410.677,0L77.8239,0Q63.8666,0 55.9911,6.78568Q48.1157,13.5714 48.1157,25.4785Q48.1157,35.5829 54.2223,42.7044Q60.3289,49.8259 72.6845,54.4864L121.141,63.0083Q138.946,67.6431 146.399,78.8466Q153.852,90.0501 153.852,112.654L153.852,1311.33Q153.852,1329.2 148.306,1337.09Q142.759,1344.97 129.393,1347.22L63.1908,1348.54Q51.4865,1351.79 46.3203,1357.95Q41.154,1364.11 41.154,1372.99Q41.154,1383.28 47.6832,1390.26Q54.2124,1397.25 69.9029,1402.74L252.681,1459.26Q273.774,1466.73 284.943,1469.28Q296.112,1471.83 305.532,1471.83Q320.521,1471.83 328.485,1462.44Q336.449,1453.04 336.449,1437.71Z"></path>
  <rect x="141.4" y="21.0" width="1" height="34" fill="rgba(42,38,34,0.15)"></rect>
  <path transform="translate(163.36 44.81) scale(0.01900 -0.01900)" fill="#8A7F72" d="M85,0L85,710L331,710Q445,710 521.5,662.5Q598,615 636,534.5Q674,454 674,356Q674,248 632,168Q590,88 513,44Q436,0 331,0L85,0ZM583,356Q583,436 553.5,498Q524,560 468,595Q412,630 331,630L175,630L175,80L331,80Q413,80 469,116.5Q525,153 554,215.5Q583,278 583,356Z"></path>
  <path transform="translate(180.77 44.81) scale(0.01900 -0.01900)" fill="#8A7F72" d="M567,80L567,0L85,0L85,710L558,710L558,630L175,630L175,400L508,400L508,325L175,325L175,80L567,80Z"></path>
  <path transform="translate(196.06 44.81) scale(0.01900 -0.01900)" fill="#8A7F72" d="M502,561Q490,575 470,588Q450,601 425,611.5Q400,622 370.5,628.5Q341,635 309,635Q227,635 188,604Q149,573 149,519Q149,481 169,459Q189,437 230.5,423Q272,409 336,394Q410,378 464,355Q518,332 547,293.5Q576,255 576,191Q576,140 556.5,102.5Q537,65 502,40.5Q467,16 420,4.5Q373,-7 318,-7Q264,-7 212.5,4.5Q161,16 115,38Q69,60 29,93L72,169Q88,152 113.5,135.5Q139,119 171.5,105Q204,91 242,82.5Q280,74 320,74Q396,74 438,101.5Q480,129 480,182Q480,222 456.5,246Q433,270 387,286Q341,302 275,318Q203,336 154,357.5Q105,379 80.5,414Q56,449 56,505Q56,573 89,620Q122,667 180,691Q238,715 311,715Q359,715 400.5,705Q442,695 478,677Q514,659 544,634L502,561Z"></path>
  <path transform="translate(211.43 44.81) scale(0.01900 -0.01900)" fill="#8A7F72" d="M85,0L85,710L175,710L175,0L85,0Z"></path>
  <path transform="translate(220.17 44.81) scale(0.01900 -0.01900)" fill="#8A7F72" d="M370,-5Q300,-5 239.5,25.5Q179,56 134,107.5Q89,159 64,223.5Q39,288 39,357Q39,429 64,493.5Q89,558 133.5,608Q178,658 238.5,686.5Q299,715 370,715Q473,715 540,672Q607,629 641,560L572,512Q541,574 487,604Q433,634 368,634Q314,634 270,611Q226,588 194.5,548.5Q163,509 146.5,459Q130,409 130,355Q130,298 148.5,247.5Q167,197 201,158.5Q235,120 280,98Q325,76 377,76Q438,76 493,107Q548,138 597,202L597,109Q501,-5 370,-5ZM586,286L433,286L433,354L662,354L662,0L586,0L586,286Z"></path>
  <path transform="translate(237.54 44.81) scale(0.01900 -0.01900)" fill="#8A7F72" d="M175,544L175,0L85,0L85,710L161,710L595,155L595,709L685,709L685,0L603,0L175,544Z"></path>
  <path transform="translate(264.58 44.81) scale(0.01900 -0.01900)" fill="#8A7F72" d="M502,561Q490,575 470,588Q450,601 425,611.5Q400,622 370.5,628.5Q341,635 309,635Q227,635 188,604Q149,573 149,519Q149,481 169,459Q189,437 230.5,423Q272,409 336,394Q410,378 464,355Q518,332 547,293.5Q576,255 576,191Q576,140 556.5,102.5Q537,65 502,40.5Q467,16 420,4.5Q373,-7 318,-7Q264,-7 212.5,4.5Q161,16 115,38Q69,60 29,93L72,169Q88,152 113.5,135.5Q139,119 171.5,105Q204,91 242,82.5Q280,74 320,74Q396,74 438,101.5Q480,129 480,182Q480,222 456.5,246Q433,270 387,286Q341,302 275,318Q203,336 154,357.5Q105,379 80.5,414Q56,449 56,505Q56,573 89,620Q122,667 180,691Q238,715 311,715Q359,715 400.5,705Q442,695 478,677Q514,659 544,634L502,561Z"></path>
  <path transform="translate(279.61 44.81) scale(0.01900 -0.01900)" fill="#8A7F72" d="M112,710L327,340L544,710L642,710L372,259L372,0L282,0L282,261L13,710L112,710Z"></path>
  <path transform="translate(295.34 44.81) scale(0.01900 -0.01900)" fill="#8A7F72" d="M502,561Q490,575 470,588Q450,601 425,611.5Q400,622 370.5,628.5Q341,635 309,635Q227,635 188,604Q149,573 149,519Q149,481 169,459Q189,437 230.5,423Q272,409 336,394Q410,378 464,355Q518,332 547,293.5Q576,255 576,191Q576,140 556.5,102.5Q537,65 502,40.5Q467,16 420,4.5Q373,-7 318,-7Q264,-7 212.5,4.5Q161,16 115,38Q69,60 29,93L72,169Q88,152 113.5,135.5Q139,119 171.5,105Q204,91 242,82.5Q280,74 320,74Q396,74 438,101.5Q480,129 480,182Q480,222 456.5,246Q433,270 387,286Q341,302 275,318Q203,336 154,357.5Q105,379 80.5,414Q56,449 56,505Q56,573 89,620Q122,667 180,691Q238,715 311,715Q359,715 400.5,705Q442,695 478,677Q514,659 544,634L502,561Z"></path>
  <path transform="translate(310.71 44.81) scale(0.01900 -0.01900)" fill="#8A7F72" d="M597,630L352,630L352,0L262,0L262,630L17,630L17,710L597,710L597,630Z"></path>
  <path transform="translate(326.18 44.81) scale(0.01900 -0.01900)" fill="#8A7F72" d="M567,80L567,0L85,0L85,710L558,710L558,630L175,630L175,400L508,400L508,325L175,325L175,80L567,80Z"></path>
  <path transform="translate(341.47 44.81) scale(0.01900 -0.01900)" fill="#8A7F72" d="M699,0L699,542L465,125L410,125L175,542L175,0L85,0L85,710L180,710L437,249L695,710L789,710L789,0L699,0Z"></path>
</svg>