<svg width="89" height="22" viewBox="0 0 89 22" fill="none" xmlns="http://www.w3.org/2000/svg">
<path d="M20.2227 4.28027C21.2093 4.28027 22.0899 4.46031 22.8633 4.82031C23.6498 5.16697 24.3167 5.6403 24.8633 6.24023C25.4099 6.84018 25.8235 7.52036 26.1035 8.28027C26.3968 9.04016 26.543 9.82025 26.543 10.6201C26.543 11.5533 26.3566 12.4199 25.9834 13.2197C25.6101 14.0197 25.0967 14.7203 24.4434 15.3203C23.8034 15.9203 23.0564 16.3936 22.2031 16.7402C21.93 16.8486 21.6506 16.9366 21.3662 17.0098C22.2423 17.5634 23.2676 18.0939 24.4434 18.5996C25.6967 19.1463 27.03 19.6267 28.4434 20.04C29.8566 20.4667 31.2766 20.7929 32.7031 21.0195C34.143 21.2595 35.4962 21.3799 36.7627 21.3799C38.6027 21.3799 40.0636 21.2132 41.1436 20.8799C41.1701 20.867 41.1961 20.8938 41.2227 20.96C41.2493 21.0399 41.243 21.0862 41.2031 21.0996C40.9765 21.1796 40.6298 21.2804 40.1631 21.4004C39.7098 21.5337 39.1161 21.6469 38.3828 21.7402C37.6495 21.8469 36.7625 21.9004 35.7227 21.9004C34.7761 21.9004 33.6894 21.8335 32.4629 21.7002C31.2497 21.5669 29.9098 21.3137 28.4434 20.9404C26.9768 20.5805 25.3768 20.0598 23.6436 19.3799C22.1607 18.8095 20.5804 18.0867 18.9023 17.2139C18.1834 17.1567 17.5169 17.0002 16.9033 16.7402C16.1301 16.3936 15.4633 15.9202 14.9033 15.3203C14.3567 14.7203 13.9297 14.0331 13.623 13.2598C13.3298 12.4732 13.1836 11.6397 13.1836 10.7598C13.1836 9.67991 13.3895 8.73317 13.8027 7.91992C14.2294 7.10659 14.7901 6.43372 15.4834 5.90039C16.1766 5.35379 16.9361 4.94636 17.7627 4.67969C18.5892 4.41307 19.4095 4.28032 20.2227 4.28027ZM57.7031 21H57.2031V0H57.7031V21ZM8.92969 1.55566C12.0021 0.53816 14.4219 1.22949 14.4219 1.22949C14.4219 1.22949 13.4407 1.63261 12.9434 2.07422C12.4343 2.52639 11.9155 3.47819 11.9062 3.49512L10.5234 3.32227L11.4834 3.82129C11.4735 3.82288 9.96787 4.06533 9.14062 4.37891C8.49566 4.62342 7.69195 5.12154 7.68164 5.12793C7.6948 5.12168 8.54357 4.71845 9.14062 4.58984C9.58933 4.49321 10.3125 4.45508 10.3125 4.45508C10.3125 4.45508 8.24391 5.84128 7.18164 7.08594C5.28052 9.31351 4.2627 9.79395 4.2627 9.79395L5.89551 9.10254C5.89551 9.10254 5.07662 10.3922 4.37793 11.0615C3.57925 11.8264 2.03574 12.6451 2.0166 12.6553C2.0166 12.6553 0.921875 14.684 0.921875 16.0928C0.921917 16.8608 1.17188 17.1299 1.17188 17.1299L0 18.9727C0.00537748 18.9218 0.522153 14.0754 2.41992 10.332C4.50501 6.21927 7.35213 4.1642 7.37402 4.14844C7.3589 4.15594 5.7719 4.94626 4.01367 7.16309C2.62487 8.91415 1.0801 12.1827 1.05664 12.2324C1.04772 12.2203 0.153042 10.9991 0.0957031 10.0244C0.0433234 9.13381 0.630175 7.80505 0.633789 7.79688C0.71251 8.22783 0.683819 8.48125 0.768555 8.91113C0.837485 9.26056 0.935306 9.44518 0.999023 9.79395C0.999496 9.78788 1.13025 8.10941 1.44043 7.08594C1.82457 5.81886 2.80371 4.80078 2.80371 4.80078C2.80371 4.80078 2.55158 5.50952 2.41992 5.97266C2.28981 6.43036 2.13345 7.15562 2.13184 7.16309C2.13921 7.14521 3.14144 4.71909 4.37793 3.6875C5.76199 2.53311 6.64103 2.42254 6.66309 2.41992C6.65508 2.43311 6.27441 3.06209 6.08789 3.49512C5.90035 3.93071 5.70312 4.64746 5.70312 4.64746C5.70312 4.64746 6.62749 2.31814 8.92969 1.55566ZM68.3965 16.332H68.4365L69.7314 12.6367H70.2803L68.4336 17.6904C68.356 17.9006 68.2601 18.0757 68.1465 18.2158C68.0328 18.3579 67.9006 18.4631 67.751 18.5312C67.6033 18.6012 67.4375 18.6367 67.2539 18.6367C67.1537 18.6367 67.0597 18.6273 66.9727 18.6084C66.8857 18.5895 66.8167 18.5686 66.7656 18.5459L66.9023 18.0996C67.0745 18.1526 67.2279 18.1714 67.3623 18.1562C67.4966 18.143 67.6157 18.0823 67.7197 17.9746C67.8239 17.8685 67.9176 17.705 67.999 17.4854L68.1572 17.043L66.5527 12.6367H67.1006L68.3965 16.332ZM35.2559 9.09961C35.2958 9.09969 35.3361 9.12023 35.376 9.16016C35.429 9.18674 35.456 9.21996 35.4561 9.25977V14.8604C35.4561 15.3133 35.5087 15.6399 35.6152 15.8398C35.7219 16.0398 35.9021 16.1396 36.1553 16.1396C36.2886 16.1396 36.4357 16.1201 36.5957 16.0801C36.769 16.0267 36.9758 15.9537 37.2158 15.8604C37.2825 15.8337 37.3288 15.8604 37.3555 15.9404C37.382 16.0069 37.3687 16.0535 37.3154 16.0801L34.9756 17.1797C34.9489 17.193 34.9222 17.2002 34.8955 17.2002C34.7889 17.2001 34.6684 17.0601 34.5352 16.7803C34.4018 16.4869 34.3359 16.0734 34.3359 15.54V15.4531C33.8854 15.9546 33.4394 16.3442 32.9961 16.6201C32.4094 16.9801 31.7953 17.1602 31.1553 17.1602C30.5021 17.1601 29.9823 16.9533 29.5957 16.54C29.2224 16.1134 29.0352 15.5001 29.0352 14.7002V11.6396C29.0351 11.1198 28.9888 10.7461 28.8955 10.5195C28.8155 10.2798 28.6621 10.1602 28.4355 10.1602C28.2489 10.1602 28.0225 10.2271 27.7559 10.3604C27.7025 10.3737 27.6552 10.3398 27.6152 10.2598C27.5888 10.1801 27.6023 10.1336 27.6553 10.1201L29.876 9.12012C29.9026 9.10686 29.9295 9.09961 29.9561 9.09961C29.9959 9.09975 30.0354 9.12039 30.0752 9.16016C30.1284 9.18677 30.1552 9.21987 30.1553 9.25977V14.04C30.1553 14.8265 30.2954 15.4131 30.5752 15.7998C30.8552 16.1731 31.2759 16.3604 31.8359 16.3604C32.3424 16.3603 32.849 16.2069 33.3555 15.9004C33.7144 15.6887 34.0405 15.4247 34.3359 15.1113V11.6396C34.3359 11.1198 34.2886 10.7461 34.1953 10.5195C34.1153 10.2799 33.9619 10.1602 33.7354 10.1602C33.5487 10.1602 33.3222 10.2271 33.0557 10.3604C33.0024 10.3737 32.9622 10.3397 32.9355 10.2598C32.909 10.1799 32.9224 10.1335 32.9756 10.1201L35.1953 9.12012C35.222 9.10678 35.2425 9.09961 35.2559 9.09961ZM63.7627 11.0996C64.1242 11.0996 64.4444 11.1654 64.7227 11.2979C65.0011 11.4304 65.2219 11.6137 65.3848 11.8467C65.5495 12.0777 65.6381 12.3413 65.6494 12.6367H65.1348C65.1026 12.3129 64.9598 12.0546 64.7061 11.8633C64.4524 11.6721 64.1332 11.5772 63.749 11.5771C63.4782 11.5771 63.2387 11.623 63.0322 11.7158C62.8278 11.8086 62.6672 11.9379 62.5498 12.1025C62.4343 12.2654 62.376 12.4509 62.376 12.6592C62.376 12.8125 62.4094 12.947 62.4756 13.0625C62.5419 13.178 62.6314 13.277 62.7432 13.3604C62.8568 13.4418 62.9818 13.5126 63.1182 13.5713C63.2562 13.6299 63.3952 13.679 63.5352 13.7188L64.1494 13.8945C64.335 13.9457 64.5205 14.0113 64.7061 14.0908C64.8916 14.1704 65.0614 14.2704 65.2148 14.3916C65.3701 14.5109 65.4941 14.6579 65.5869 14.832C65.6816 15.0043 65.7285 15.2119 65.7285 15.4541C65.7285 15.7647 65.6483 16.0449 65.4873 16.293C65.3263 16.541 65.095 16.738 64.7939 16.8838C64.4929 17.0276 64.1322 17.0996 63.7119 17.0996C63.3162 17.0996 62.9723 17.0339 62.6807 16.9033C62.3891 16.7708 62.1598 16.5883 61.9932 16.3555C61.8266 16.1226 61.7328 15.8525 61.7119 15.5459H62.2568C62.2758 15.7749 62.3519 15.9689 62.4844 16.1279C62.6168 16.2869 62.7891 16.4079 63.001 16.4912C63.2131 16.5727 63.4506 16.6133 63.7119 16.6133C64.0016 16.6133 64.2591 16.5653 64.4844 16.4688C64.7116 16.3703 64.8898 16.2338 65.0186 16.0596C65.1491 15.8835 65.2148 15.6791 65.2148 15.4463C65.2148 15.2496 65.1635 15.0846 65.0615 14.9521C64.9593 14.8177 64.8155 14.7042 64.6318 14.6133C64.4502 14.5225 64.2392 14.4421 63.999 14.3721L63.3027 14.168C62.8464 14.0316 62.4921 13.843 62.2402 13.6025C61.9883 13.362 61.8623 13.0547 61.8623 12.6816C61.8623 12.3693 61.9458 12.095 62.1123 11.8584C62.2809 11.6198 62.508 11.4334 62.7939 11.3008C63.0818 11.1663 63.4048 11.0996 63.7627 11.0996ZM72.7236 12.5771C73.1231 12.5771 73.442 12.6679 73.6807 12.8496C73.9212 13.0295 74.0951 13.2775 74.2012 13.5938L73.7383 13.7246C73.6928 13.5939 73.6283 13.4752 73.5449 13.3691C73.4616 13.2631 73.3522 13.1787 73.2178 13.1162C73.0853 13.0538 72.9204 13.0225 72.7236 13.0225C72.4282 13.0225 72.1855 13.0933 71.9961 13.2334C71.807 13.3735 71.712 13.5541 71.7119 13.7754C71.7119 13.9629 71.7765 14.116 71.9053 14.2334C72.036 14.3489 72.237 14.4406 72.5078 14.5088L73.167 14.6709C73.5324 14.7599 73.8065 14.9006 73.9883 15.0938C74.1719 15.2869 74.2637 15.5297 74.2637 15.8213C74.2636 16.0674 74.1949 16.2863 74.0586 16.4775C73.9223 16.6686 73.7323 16.8189 73.4883 16.9287C73.2459 17.0366 72.9645 17.0908 72.6445 17.0908C72.2184 17.0908 71.8664 16.995 71.5898 16.8037C71.3135 16.6105 71.1362 16.3322 71.0586 15.9688L71.5449 15.8496C71.6074 16.1089 71.7294 16.305 71.9111 16.4375C72.0948 16.5701 72.3365 16.6367 72.6357 16.6367C72.9708 16.6367 73.2387 16.5616 73.4395 16.4121C73.6402 16.2606 73.7412 16.071 73.7412 15.8438C73.7412 15.6676 73.6819 15.5197 73.5645 15.4004C73.447 15.2793 73.2688 15.1906 73.0303 15.1338L72.3174 14.9629C71.9387 14.872 71.6584 14.7282 71.4766 14.5312C71.2947 14.3343 71.2041 14.0895 71.2041 13.7979C71.2042 13.5577 71.269 13.3467 71.3994 13.165C71.53 12.9814 71.7104 12.8376 71.9395 12.7334C72.1686 12.6292 72.4301 12.5772 72.7236 12.5771ZM79.8789 12.5771C80.1155 12.5772 80.3439 12.62 80.5635 12.707C80.7831 12.7923 80.9801 12.9245 81.1543 13.1025C81.3302 13.2785 81.4691 13.5009 81.5713 13.7695C81.6736 14.0366 81.7256 14.3532 81.7256 14.7188V14.9688H78.4785C78.4853 15.2894 78.5422 15.5717 78.6543 15.8154C78.7755 16.0729 78.9465 16.273 79.168 16.415C79.3895 16.5571 79.6521 16.6279 79.9551 16.6279C80.1615 16.6279 80.3427 16.5956 80.498 16.5312C80.6552 16.4669 80.7866 16.3804 80.8926 16.2725C81.0004 16.1627 81.0818 16.0427 81.1367 15.9121L81.6172 16.0684C81.5509 16.252 81.4415 16.4219 81.29 16.5771C81.1405 16.7322 80.9527 16.8575 80.7275 16.9521C80.5042 17.0448 80.2465 17.0908 79.9551 17.0908C79.548 17.0908 79.1957 16.996 78.8984 16.8066C78.6012 16.6154 78.3709 16.3516 78.208 16.0146C78.047 15.6756 77.9668 15.285 77.9668 14.8438C77.9668 14.4044 78.047 14.0138 78.208 13.6729C78.3709 13.3302 78.5959 13.0623 78.8818 12.8691C79.1696 12.6742 79.5022 12.5771 79.8789 12.5771ZM76.166 12.6367H77.0898V13.0771H76.166V15.8604C76.166 16.0422 76.1973 16.1859 76.2598 16.29C76.3222 16.3922 76.4037 16.4652 76.5039 16.5088C76.6043 16.5504 76.7116 16.5713 76.8252 16.5713C76.8915 16.5713 76.9487 16.5671 76.9961 16.5596C77.0433 16.5501 77.0852 16.5407 77.1211 16.5312L77.2285 16.9883C77.1793 17.0072 77.1188 17.0249 77.0469 17.04C76.975 17.0571 76.8861 17.0654 76.7803 17.0654C76.5948 17.0654 76.4154 17.0247 76.2432 16.9434C76.0727 16.8619 75.9321 16.7401 75.8223 16.5791C75.7126 16.4183 75.6573 16.2188 75.6572 15.9805V13.0771H75.0068V12.6367H75.6572V11.5908H76.166V12.6367ZM40.7188 9.09961C40.7454 9.09961 40.7793 9.12016 40.8193 9.16016C40.859 9.18673 40.8788 9.21999 40.8789 9.25977C40.8789 9.36643 40.8727 9.62671 40.8594 10.04C40.846 10.4534 40.8389 10.9801 40.8389 11.6201V15.3799C40.8389 15.9397 40.912 16.3133 41.0586 16.5C41.2186 16.6733 41.5655 16.7597 42.0986 16.7598C42.1386 16.7598 42.1592 16.8 42.1592 16.8799C42.1592 16.9599 42.1386 17 42.0986 17C41.8587 17 41.5787 16.9938 41.2588 16.9805C40.9523 16.9671 40.6258 16.96 40.2793 16.96C39.9328 16.96 39.5992 16.9671 39.2793 16.9805C38.9726 16.9938 38.6918 17 38.4385 17C38.4121 16.9996 38.3984 16.9595 38.3984 16.8799C38.3985 16.8004 38.4121 16.7602 38.4385 16.7598C38.9585 16.7598 39.299 16.6733 39.459 16.5C39.6323 16.3133 39.7188 15.9398 39.7188 15.3799V11.6396C39.7187 11.1733 39.6724 10.8334 39.5791 10.6201C39.4858 10.3935 39.3119 10.2803 39.0586 10.2803C38.952 10.2803 38.8252 10.3071 38.6787 10.3604C38.5322 10.4003 38.3589 10.4664 38.1592 10.5596C38.1059 10.5729 38.0585 10.547 38.0186 10.4805C37.9919 10.4005 37.9991 10.347 38.0391 10.3203L40.6387 9.12012C40.6785 9.10684 40.7054 9.09966 40.7188 9.09961ZM45.9072 2.5C45.9339 2.5 45.9679 2.51966 46.0078 2.55957C46.0611 2.58624 46.0879 2.62016 46.0879 2.66016V15.3799C46.0879 15.9399 46.161 16.3133 46.3076 16.5C46.4543 16.6733 46.7948 16.7598 47.3281 16.7598C47.3678 16.7601 47.3877 16.8003 47.3877 16.8799C47.3877 16.9596 47.3678 16.9997 47.3281 17C47.1015 17 46.8277 16.9938 46.5078 16.9805C46.1878 16.9671 45.8473 16.96 45.4873 16.96C45.1408 16.96 44.801 16.9671 44.4678 16.9805C44.1478 16.9938 43.8741 17 43.6475 17C43.6076 16.9999 43.5879 16.9598 43.5879 16.8799C43.5879 16.8001 43.6076 16.7599 43.6475 16.7598C44.1675 16.7598 44.508 16.6733 44.668 16.5C44.8279 16.3133 44.9072 15.9397 44.9072 15.3799V5.04004C44.9072 4.57337 44.8609 4.23287 44.7676 4.01953C44.6742 3.79315 44.5074 3.67969 44.2676 3.67969C44.0676 3.67971 43.7609 3.77332 43.3477 3.95996C43.3077 3.98663 43.2675 3.95988 43.2275 3.87988C43.1876 3.79997 43.1947 3.75356 43.248 3.74023L45.8076 2.51953C45.8342 2.5063 45.8675 2.50005 45.9072 2.5ZM51.0635 2.5C51.0901 2.5 51.1241 2.51966 51.1641 2.55957C51.2174 2.58624 51.2441 2.62016 51.2441 2.66016V15.3799C51.2441 15.9399 51.3172 16.3133 51.4639 16.5C51.6105 16.6733 51.951 16.7598 52.4844 16.7598C52.524 16.7601 52.5439 16.8003 52.5439 16.8799C52.5439 16.9596 52.5241 16.9997 52.4844 17C52.2578 17 51.984 16.9938 51.6641 16.9805C51.3441 16.9671 51.0036 16.96 50.6436 16.96C50.297 16.96 49.9572 16.9671 49.624 16.9805C49.304 16.9938 49.0304 17 48.8037 17C48.7638 16.9999 48.7441 16.9598 48.7441 16.8799C48.7442 16.8001 48.7639 16.7599 48.8037 16.7598C49.3237 16.7598 49.6642 16.6733 49.8242 16.5C49.9841 16.3133 50.0635 15.9397 50.0635 15.3799V5.04004C50.0635 4.57337 50.0172 4.23287 49.9238 4.01953C49.8305 3.79315 49.6637 3.67969 49.4238 3.67969C49.2238 3.67971 48.9172 3.77332 48.5039 3.95996C48.4639 3.98663 48.4238 3.95988 48.3838 3.87988C48.3439 3.79997 48.351 3.75356 48.4043 3.74023L50.9639 2.51953C50.9904 2.5063 51.0237 2.50005 51.0635 2.5ZM87.0557 12.5791C87.4608 12.5792 87.7808 12.7073 88.0156 12.9629C88.2505 13.2167 88.3682 13.5885 88.3682 14.0771V17H87.8623V14.0771C87.8623 13.7325 87.7738 13.4731 87.5977 13.3008C87.4216 13.1287 87.1899 13.043 86.9023 13.043C86.569 13.043 86.3118 13.1451 86.1318 13.3496C85.952 13.5541 85.8623 13.8137 85.8623 14.1279V17H85.3447V14.0312C85.3447 13.7358 85.2624 13.4972 85.0977 13.3154C84.933 13.1338 84.7013 13.043 84.4023 13.043C84.2016 13.043 84.0204 13.0919 83.8594 13.1904C83.7003 13.2889 83.5742 13.4264 83.4814 13.6025C83.3907 13.7766 83.3448 13.9771 83.3447 14.2041V17H82.8398V12.6367H83.3311V13.3066H83.376C83.4631 13.0813 83.6089 12.9042 83.8115 12.7754C84.016 12.6449 84.2611 12.5791 84.5469 12.5791C84.848 12.5791 85.0949 12.6509 85.2881 12.793C85.4831 12.9331 85.629 13.1259 85.7256 13.3721H85.7627C85.8612 13.1297 86.0216 12.9379 86.2432 12.7959C86.4666 12.652 86.7375 12.5791 87.0557 12.5791ZM19.3828 4.74023C17.903 4.7403 16.7495 5.21978 15.9229 6.17969C15.1096 7.12627 14.7032 8.41977 14.7031 10.0596C14.7031 11.0061 14.8297 11.8931 15.083 12.7197C15.3496 13.5329 15.7294 14.2533 16.2227 14.8799C16.716 15.4932 17.3034 15.9736 17.9834 16.3203C18.6632 16.6535 19.4096 16.8202 20.2227 16.8203C21.1293 16.8203 21.9431 16.6064 22.6631 16.1797C23.383 15.7397 23.9562 15.0997 24.3828 14.2598C24.8095 13.4198 25.0234 12.393 25.0234 11.1797C25.0234 9.92663 24.7898 8.8202 24.3232 7.86035C23.8699 6.88707 23.2165 6.12674 22.3633 5.58008C21.5233 5.02008 20.5295 4.74023 19.3828 4.74023ZM79.8789 13.0371C79.6024 13.0371 79.3587 13.1111 79.1484 13.2588C78.9383 13.4065 78.7736 13.6014 78.6543 13.8438C78.5529 14.053 78.4977 14.2794 78.4824 14.5225H81.208C81.208 14.2423 81.1517 13.99 81.0381 13.7666C80.9264 13.5415 80.7698 13.364 80.5693 13.2334C80.3706 13.1028 80.1401 13.0372 79.8789 13.0371ZM79.7939 3.57715C80.061 3.57715 80.2828 3.62405 80.459 3.71875C80.635 3.81152 80.7758 3.92724 80.8818 4.06543C80.9898 4.20366 81.0742 4.33809 81.1348 4.46875H81.1865V3.63672H81.6807V8.11328C81.6807 8.4826 81.6015 8.78675 81.4443 9.02539C81.2872 9.26396 81.0735 9.44007 80.8027 9.55371C80.5319 9.66924 80.2236 9.72754 79.8789 9.72754C79.5817 9.72751 79.3211 9.68797 79.0977 9.61035C78.8744 9.53461 78.6855 9.43034 78.5322 9.29785C78.3791 9.16545 78.2599 9.01704 78.1748 8.85254L78.5898 8.5791C78.6523 8.68895 78.7357 8.79726 78.8398 8.90332C78.9458 9.00927 79.0826 9.09794 79.251 9.16797C79.4213 9.23801 79.631 9.27243 79.8789 9.27246C80.265 9.27246 80.5768 9.17632 80.8135 8.9834C81.0521 8.79022 81.1719 8.48923 81.1719 8.08203V7.09961H81.126C81.0673 7.23199 80.9837 7.36469 80.874 7.49707C80.7642 7.62775 80.6194 7.7371 80.4414 7.82422C80.2653 7.9112 80.0463 7.9541 79.7852 7.9541C79.4368 7.95404 79.1272 7.86856 78.8564 7.69629C78.5875 7.52394 78.375 7.27711 78.2197 6.95703C78.0665 6.63516 77.9902 6.2515 77.9902 5.80664C77.9903 5.36543 78.0652 4.97678 78.2148 4.6416C78.3663 4.3068 78.5772 4.04578 78.8477 3.8584C79.1185 3.67091 79.4341 3.57716 79.7939 3.57715ZM69.3008 3.57715C69.5374 3.57719 69.7658 3.61995 69.9854 3.70703C70.205 3.79226 70.402 3.92454 70.5762 4.10254C70.7521 4.27854 70.891 4.50091 70.9932 4.76953C71.0954 5.03658 71.1475 5.35322 71.1475 5.71875V5.96875H67.9004C67.9072 6.28937 67.9641 6.57169 68.0762 6.81543C68.1974 7.07289 68.3684 7.27302 68.5898 7.41504C68.8114 7.55706 69.074 7.6279 69.377 7.62793C69.5834 7.62793 69.7646 7.59564 69.9199 7.53125C70.0771 7.46686 70.2084 7.38038 70.3145 7.27246C70.4223 7.1627 70.5037 7.04267 70.5586 6.91211L71.0391 7.06836C70.9728 7.25201 70.8634 7.42189 70.7119 7.57715C70.5624 7.73224 70.3746 7.85754 70.1494 7.95215C69.9261 8.0448 69.6684 8.09082 69.377 8.09082C68.9698 8.09079 68.6176 7.99601 68.3203 7.80664C68.0231 7.61542 67.7927 7.35158 67.6299 7.01465C67.4689 6.67563 67.3887 6.28504 67.3887 5.84375C67.3887 5.40436 67.4689 5.01376 67.6299 4.67285C67.7927 4.33021 68.0178 4.06226 68.3037 3.86914C68.5915 3.67424 68.9241 3.57715 69.3008 3.57715ZM73.7158 3.57715C74.1153 3.57715 74.4342 3.66789 74.6729 3.84961C74.9134 4.02953 75.0873 4.27746 75.1934 4.59375L74.7305 4.72461C74.685 4.59393 74.6204 4.4752 74.5371 4.36914C74.4538 4.26309 74.3444 4.17871 74.21 4.11621C74.0774 4.05381 73.9126 4.02246 73.7158 4.02246C73.4204 4.02247 73.1777 4.09326 72.9883 4.2334C72.7992 4.37347 72.7042 4.55405 72.7041 4.77539C72.7041 4.96289 72.7687 5.11597 72.8975 5.2334C73.0281 5.3489 73.2292 5.44062 73.5 5.50879L74.1592 5.6709C74.5246 5.75992 74.7987 5.9006 74.9805 6.09375C75.1641 6.2869 75.2559 6.52971 75.2559 6.82129C75.2558 7.06739 75.1871 7.28632 75.0508 7.47754C74.9145 7.66856 74.7244 7.81894 74.4805 7.92871C74.2381 8.03663 73.9566 8.09078 73.6367 8.09082C73.2106 8.09082 72.8585 7.995 72.582 7.80371C72.3057 7.61054 72.1284 7.33223 72.0508 6.96875L72.5371 6.84961C72.5996 7.10895 72.7216 7.30496 72.9033 7.4375C73.087 7.57008 73.3287 7.63672 73.6279 7.63672C73.963 7.6367 74.2309 7.56162 74.4316 7.41211C74.6324 7.26059 74.7334 7.07102 74.7334 6.84375C74.7334 6.66761 74.6741 6.51971 74.5566 6.40039C74.4392 6.27927 74.261 6.19058 74.0225 6.13379L73.3096 5.96289C72.9308 5.87198 72.6505 5.7282 72.4688 5.53125C72.2869 5.33428 72.1963 5.08952 72.1963 4.79785C72.1964 4.55767 72.2612 4.34666 72.3916 4.16504C72.5222 3.98141 72.7026 3.83755 72.9316 3.7334C73.1608 3.62924 73.4223 3.57716 73.7158 3.57715ZM63.7822 2.18164C64.3372 2.18164 64.8121 2.29726 65.2061 2.52832C65.6018 2.75935 65.905 3.09072 66.1152 3.52246C66.3255 3.95428 66.4307 4.47298 66.4307 5.07715C66.4306 5.68672 66.3222 6.2101 66.1064 6.64746C65.8924 7.08306 65.5799 7.41744 65.1689 7.65039C64.7599 7.88331 64.2639 7.99996 63.6807 8H61.9756V2.18164H63.7822ZM76.877 8H76.3682V3.63672H76.877V8ZM84.8398 3.5791C85.1334 3.5791 85.3917 3.64154 85.6133 3.76465C85.8365 3.88581 86.0098 4.06434 86.1328 4.30078C86.2578 4.53742 86.3203 4.82835 86.3203 5.17285V8H85.8145V5.2041C85.8144 4.84651 85.7142 4.56369 85.5137 4.35547C85.3148 4.14714 85.0471 4.04297 84.7119 4.04297C84.4829 4.04303 84.2795 4.09201 84.1016 4.19043C83.9237 4.28884 83.7828 4.43081 83.6787 4.61621C83.5765 4.79986 83.5244 5.01879 83.5244 5.27246V8H83.0195V3.63672H83.5107V4.32129H83.5557C83.6579 4.09786 83.8174 3.91864 84.0332 3.78418C84.2509 3.64787 84.5199 3.57915 84.8398 3.5791ZM62.5068 7.52246H63.6494C64.1493 7.52243 64.5682 7.42447 64.9053 7.22754C65.2422 7.03063 65.4946 6.74909 65.6631 6.38379C65.8316 6.01837 65.916 5.58264 65.916 5.07715C65.9141 4.57525 65.8308 4.14299 65.666 3.78125C65.5031 3.41954 65.2604 3.14239 64.9385 2.94922C64.6184 2.7561 64.2225 2.65918 63.751 2.65918H62.5068V7.52246ZM79.8447 4.03711C79.5533 4.03719 79.3071 4.11538 79.1064 4.27246C78.9057 4.42965 78.7546 4.64215 78.6523 4.90918C78.5501 5.17421 78.4991 5.47038 78.499 5.79785C78.499 6.13118 78.5511 6.42596 78.6553 6.68164C78.7594 6.93543 78.9115 7.13438 79.1123 7.27832C79.313 7.42029 79.557 7.49114 79.8447 7.49121C80.1248 7.49121 80.3647 7.42432 80.5635 7.29004C80.7623 7.15368 80.9154 6.95789 81.0215 6.7041C81.1274 6.4504 81.1807 6.14803 81.1807 5.79785C81.1806 5.45712 81.1285 5.15474 81.0244 4.8916C80.9203 4.62659 80.7681 4.41806 80.5693 4.2666C80.3724 4.11339 80.1305 4.03711 79.8447 4.03711ZM40.1191 5.08008C40.3857 5.08012 40.5926 5.15318 40.7393 5.2998C40.8859 5.44645 40.959 5.65334 40.959 5.91992C40.959 6.47984 40.679 6.75969 40.1191 6.75977C39.8525 6.75977 39.6385 6.68671 39.4785 6.54004C39.3186 6.39338 39.2393 6.18648 39.2393 5.91992C39.2393 5.65336 39.3186 5.44645 39.4785 5.2998C39.6385 5.15314 39.8525 5.08008 40.1191 5.08008ZM69.3008 4.03711C69.0243 4.03711 68.7805 4.11106 68.5703 4.25879C68.3602 4.40649 68.1955 4.60141 68.0762 4.84375C67.9748 5.05299 67.9196 5.27936 67.9043 5.52246H70.6299C70.6298 5.24226 70.5736 4.99002 70.46 4.7666C70.3483 4.5415 70.1917 4.36401 69.9912 4.2334C69.7924 4.10278 69.562 4.03717 69.3008 4.03711ZM76.627 2.15918C76.7311 2.15918 76.8207 2.19466 76.8945 2.2666C76.9683 2.33662 77.0048 2.4222 77.0049 2.52246C77.0049 2.62276 76.9683 2.70932 76.8945 2.78125C76.8207 2.85133 76.7311 2.88672 76.627 2.88672C76.5229 2.88668 76.4341 2.8512 76.3604 2.78125C76.2865 2.70928 76.249 2.62284 76.249 2.52246C76.2491 2.4222 76.2866 2.33662 76.3604 2.2666C76.4341 2.1949 76.523 2.15922 76.627 2.15918Z" fill="#624829"/>
</svg>
