<svg xmlns="http://www.w3.org/2000/svg" viewBox="0 0 200 52" width="200" height="52">
  <!-- Icon container: paper-deep rounded square -->
  <rect width="52" height="52" rx="8" fill="#E8DCC0"/>
  <!-- Feather body -->
  <path d="M26 6 C19 9 13 16 13 24 C13 31 17 37 22 39 L24 44 L26 42 L28 44 L30 39 C35 37 39 31 39 24 C39 16 33 9 26 6Z" fill="#2A2622"/>
  <!-- Central shaft -->
  <line x1="26" y1="9" x2="26" y2="42" stroke="#EFE4CE" stroke-width="0.8" opacity="0.5"/>
  <!-- Barbs left -->
  <line x1="26" y1="15" x2="16" y2="25" stroke="#EFE4CE" stroke-width="0.7" stroke-linecap="round" opacity="0.65"/>
  <line x1="26" y1="21" x2="14" y2="29" stroke="#EFE4CE" stroke-width="0.7" stroke-linecap="round" opacity="0.65"/>
  <line x1="26" y1="27" x2="15" y2="34" stroke="#EFE4CE" stroke-width="0.7" stroke-linecap="round" opacity="0.65"/>
  <!-- Barbs right -->
  <line x1="26" y1="15" x2="36" y2="25" stroke="#EFE4CE" stroke-width="0.7" stroke-linecap="round" opacity="0.65"/>
  <line x1="26" y1="21" x2="38" y2="29" stroke="#EFE4CE" stroke-width="0.7" stroke-linecap="round" opacity="0.65"/>
  <line x1="26" y1="27" x2="37" y2="34" stroke="#EFE4CE" stroke-width="0.7" stroke-linecap="round" opacity="0.65"/>
  <!-- Nib - terracotta -->
  <path d="M23.5 38 L26 45 L28.5 38 C27.5 36.5 24.5 36.5 23.5 38Z" fill="#C4684B"/>
  <!-- Wordmark -->
  <text x="64" y="30" font-family="Georgia, 'Times New Roman', serif" font-size="24" font-style="italic" fill="#2A2622" letter-spacing="-0.5">Quill</text>
  <!-- Descriptor -->
  <text x="65" y="44" font-family="Arial, Helvetica, sans-serif" font-size="8.5" font-weight="500" fill="#8A7F72" letter-spacing="1.8">DESIGN SYSTEM</text>
</svg>
